<?xml version="1.0" standalone="no"?><!DOCTYPE svg PUBLIC "-//W3C//DTD SVG 1.1//EN" "http://www.w3.org/Graphics/SVG/1.1/DTD/svg11.dtd"><svg t="1637823209410" class="icon" viewBox="0 0 1353 1024" version="1.1" xmlns="http://www.w3.org/2000/svg" p-id="4743" xmlns:xlink="http://www.w3.org/1999/xlink" width="264.2578125" height="200"><defs><style type="text/css"></style></defs><path d="M213.408 839.786c-3.212 0-6.428 0-9.641-3.212s-6.428-6.428-6.428-12.854v-613.797c0-6.428 3.212-12.854 9.641-16.067l241.019-89.981c3.212 0 9.641 0 12.854 0l196.029 89.981 231.379-106.048c3.212 0 6.428-3.212 9.641 0l247.447 41.777c6.428 0 12.854 6.428 12.854 16.067v613.797c0 3.212-3.212 9.641-6.428 12.854-3.212 3.212-9.641 3.212-12.854 3.212l-80.339-16.067c-9.641-3.212-16.067-9.641-12.854-19.282s9.641-16.067 19.282-12.854l61.058 12.854v-581.661l-228.164-38.563-234.593 106.048c-3.212 3.212-9.641 3.212-12.854 0l-196.029-89.981-224.953 83.554v578.446l218.525-83.554c3.212 0 9.641 0 12.854 0l192.816 86.766c9.641 3.212 12.854 12.854 9.641 22.495s-12.854 12.854-22.495 9.641l-186.389-83.554-234.593 86.766c-3.212 3.212-6.428 3.212-6.428 3.212z" p-id="4744"></path><path d="M467.283 643.757c-9.641 0-16.067-6.428-16.067-16.067v-388.845c0-9.641 6.428-16.067 16.067-16.067s16.067 6.428 16.067 16.067v388.845c0 9.641-6.428 16.067-16.067 16.067z" p-id="4745"></path><path d="M660.099 476.651c-9.641 0-16.067-6.428-16.067-16.067v-147.826c0-9.641 6.428-16.067 16.067-16.067s16.067 6.428 16.067 16.067v147.826c0 9.641-6.428 16.067-16.067 16.067z" p-id="4746"></path><path d="M920.4 422.019c-9.641 0-16.067-6.428-16.067-16.067v-196.029c0-9.641 6.428-16.067 16.067-16.067s16.067 6.428 16.067 16.067v196.029c0 9.641-6.428 16.067-16.067 16.067z" p-id="4747"></path><path d="M836.846 1042.243c-6.428 0-9.641-3.212-12.854-6.428-6.428-9.641-173.535-263.514-173.535-359.922 0-102.836 83.554-186.389 186.389-186.389s186.389 83.554 186.389 186.389c0 96.409-167.106 347.067-173.535 359.922-3.212 3.212-6.428 6.428-12.854 6.428zM836.846 521.641c-83.554 0-154.252 67.485-154.252 154.252 0 67.485 99.62 237.806 154.252 321.359 51.417-83.554 154.252-253.874 154.252-321.359 0-83.554-67.485-154.252-154.252-154.252z" p-id="4748"></path><path d="M836.846 720.883c-32.137 0-57.845-25.708-57.845-57.845s25.708-57.845 57.845-57.845 57.845 25.708 57.845 57.845c0 32.137-25.708 57.845-57.845 57.845zM836.846 637.331c-12.854 0-25.708 12.854-25.708 25.708s12.854 25.708 25.708 25.708 25.708-12.854 25.708-25.708c0-12.854-9.641-25.708-25.708-25.708z" p-id="4749"></path></svg>