<?xml version="1.0" standalone="no"?><!DOCTYPE svg PUBLIC "-//W3C//DTD SVG 1.1//EN" "http://www.w3.org/Graphics/SVG/1.1/DTD/svg11.dtd"><svg t="1637823059824" class="icon" viewBox="0 0 1024 1024" version="1.1" xmlns="http://www.w3.org/2000/svg" p-id="4201" xmlns:xlink="http://www.w3.org/1999/xlink" width="200" height="200"><defs><style type="text/css"></style></defs><path d="M153.6 153.6v716.8c0 28.2624 22.9632 51.2 51.328 51.2h409.344C642.816 921.6 665.6 898.816 665.6 870.4V153.6c0-28.2624-22.9632-51.2-51.328-51.2H204.928C176.384 102.4 153.6 125.184 153.6 153.6zM51.2 153.6c0-84.8384 68.5056-153.6 153.728-153.6h409.344A153.6768 153.6768 0 0 1 768 153.6v716.8c0 84.8384-68.5056 153.6-153.728 153.6H204.928A153.6768 153.6768 0 0 1 51.2 870.4V153.6z m358.4 716.8a51.2 51.2 0 1 0 0-102.4 51.2 51.2 0 0 0 0 102.4zM153.6 614.4h512v102.4H153.6v-102.4zM819.2 0a153.6 153.6 0 0 1 153.6 153.6v716.8c0 84.8384-68.4544 153.6-153.6 153.6 0 0 51.3024 0 51.3024-153.6V153.6C870.5024 0 819.2 0 819.2 0z" fill="#9099B0" p-id="4202"></path></svg>