<?xml version="1.0" standalone="no"?><!DOCTYPE svg PUBLIC "-//W3C//DTD SVG 1.1//EN" "http://www.w3.org/Graphics/SVG/1.1/DTD/svg11.dtd"><svg t="1637820564413" class="icon" viewBox="0 0 1024 1024" version="1.1" xmlns="http://www.w3.org/2000/svg" p-id="1273" xmlns:xlink="http://www.w3.org/1999/xlink" width="200" height="200"><defs><style type="text/css"></style></defs><path d="M832 192h106.453333C985.706667 192 1024 230.4 1024 277.546667v298.24A85.525333 85.525333 0 0 1 938.453333 661.333333H832v-85.333333h64.064A42.666667 42.666667 0 0 0 938.666667 533.205333v-213.077333A42.688 42.688 0 0 0 896.064 277.333333H127.936A42.666667 42.666667 0 0 0 85.333333 320.128v213.077333C85.333333 556.864 104.405333 576 127.936 576H192v85.333333H85.546667C38.293333 661.333333 0 622.933333 0 575.786667V277.546667A85.525333 85.525333 0 0 1 85.546667 192H192V85.482667A85.333333 85.333333 0 0 1 277.333333 0h469.333334c47.146667 0 85.333333 38.272 85.333333 85.482667V192zM277.333333 117.333333V192h469.333334V117.333333A32 32 0 0 0 714.773333 85.333333h-405.546666C291.626667 85.333333 277.333333 99.669333 277.333333 117.333333zM192 533.290667A85.248 85.248 0 0 1 277.333333 448h469.333334a85.333333 85.333333 0 0 1 85.333333 85.290667v405.418666A85.248 85.248 0 0 1 746.666667 1024H277.333333a85.333333 85.333333 0 0 1-85.333333-85.290667V533.290667z m85.333333 31.850666v341.717334c0 17.386667 14.293333 31.808 31.893334 31.808h405.546666C732.373333 938.666667 746.666667 924.437333 746.666667 906.88V565.12c0-17.365333-14.293333-31.786667-31.893334-31.786667h-405.546666C291.626667 533.333333 277.333333 547.562667 277.333333 565.12zM320 661.333333c0-23.573333 19.050667-42.666667 42.56-42.666666h298.88c23.509333 0 42.56 18.944 42.56 42.666666 0 23.573333-19.050667 42.666667-42.56 42.666667h-298.88A42.517333 42.517333 0 0 1 320 661.333333z m0 149.333334c0-23.573333 19.050667-42.666667 42.56-42.666667h298.88c23.509333 0 42.56 18.944 42.56 42.666667 0 23.573333-19.050667 42.666667-42.56 42.666666h-298.88A42.517333 42.517333 0 0 1 320 810.666667z" p-id="1274"></path></svg>