<?xml version="1.0" standalone="no"?><!DOCTYPE svg PUBLIC "-//W3C//DTD SVG 1.1//EN" "http://www.w3.org/Graphics/SVG/1.1/DTD/svg11.dtd"><svg t="1639047839743" class="icon" viewBox="0 0 1024 1024" version="1.1" xmlns="http://www.w3.org/2000/svg" p-id="3673" xmlns:xlink="http://www.w3.org/1999/xlink" width="200" height="200"><defs><style type="text/css"></style></defs><path d="M885.333333 106.666667h-746.666666C121.6 106.666667 106.666667 121.6 106.666667 138.666667v746.666666c0 17.066667 14.933333 32 32 32H298.666667v-64H170.666667V170.666667h682.666666v682.666666H362.666667v64h522.666666c17.066667 0 32-14.933333 32-32v-746.666666c0-17.066667-14.933333-32-32-32z" p-id="3674"></path><path d="M298.666667 320h426.666666v64H298.666667zM448 469.333333h277.333333v64H448zM448 618.666667h277.333333v64H448zM298.666667 469.333333h64v213.333334h-64z" p-id="3675"></path></svg>