<?xml version="1.0" standalone="no"?><!DOCTYPE svg PUBLIC "-//W3C//DTD SVG 1.1//EN" "http://www.w3.org/Graphics/SVG/1.1/DTD/svg11.dtd"><svg t="1639128812811" class="icon" viewBox="0 0 1024 1024" version="1.1" xmlns="http://www.w3.org/2000/svg" p-id="1667" xmlns:xlink="http://www.w3.org/1999/xlink" width="200" height="200"><defs><style type="text/css"></style></defs><path d="M960 0a64 64 0 0 1 63.701333 57.856l0.298667 6.144v277.333333a85.333333 85.333333 0 0 1-78.933333 85.12l-6.4 0.213334h-170.410667v-85.333334H938.666667v-256h-853.333334v256h85.333334v85.333334h-85.333334a85.333333 85.333333 0 0 1-85.12-78.933334L0 341.333333v-277.333333a64 64 0 0 1 57.856-63.701333l6.144-0.298667h896z" p-id="1668"></path><path d="M789.333333 170.666667a64 64 0 0 1 63.701334 57.856l0.298666 6.144v192a42.666667 42.666667 0 0 1-85.034666 4.992L768 426.666667v-170.666667h-512v682.666667h213.333333a42.666667 42.666667 0 0 1 42.368 37.674666l0.298667 4.992a42.666667 42.666667 0 0 1-37.674667 42.368L469.333333 1024h-234.666666a64 64 0 0 1-63.701334-57.856l-0.298666-6.144v-725.333333a64 64 0 0 1 57.856-63.701334l6.144-0.298666h554.666666z" p-id="1669"></path><path d="M789.333333 554.666667a234.666667 234.666667 0 1 0 0 469.333333 234.666667 234.666667 0 0 0 0-469.333333z m0 85.333333a149.333333 149.333333 0 1 1 0 298.666667 149.333333 149.333333 0 0 1 0-298.666667z" p-id="1670"></path><path d="M810.666667 682.666667a42.666667 42.666667 0 0 1 42.368 37.674666l0.298666 4.992v65.536l31.146667 33.322667a42.666667 42.666667 0 0 1 1.706667 56.405333l-3.712 3.882667a42.666667 42.666667 0 0 1-56.405334 1.706667l-3.882666-3.712-42.666667-45.653334a42.666667 42.666667 0 0 1-11.178667-23.765333l-0.341333-5.333333V725.333333a42.666667 42.666667 0 0 1 42.666667-42.666666z" p-id="1671"></path><path d="M341.333333 682.666667m42.666667 0l42.666667 0q42.666667 0 42.666666 42.666666l0 0q0 42.666667-42.666666 42.666667l-42.666667 0q-42.666667 0-42.666667-42.666667l0 0q0-42.666667 42.666667-42.666666Z" p-id="1672"></path><path d="M341.333333 512m42.666667 0l128 0q42.666667 0 42.666667 42.666667l0 0q0 42.666667-42.666667 42.666666l-128 0q-42.666667 0-42.666667-42.666666l0 0q0-42.666667 42.666667-42.666667Z" p-id="1673"></path><path d="M341.333333 341.333333m42.666667 0l256 0q42.666667 0 42.666667 42.666667l0 0q0 42.666667-42.666667 42.666667l-256 0q-42.666667 0-42.666667-42.666667l0 0q0-42.666667 42.666667-42.666667Z" p-id="1674"></path></svg>