<?xml version="1.0" standalone="no"?><!DOCTYPE svg PUBLIC "-//W3C//DTD SVG 1.1//EN" "http://www.w3.org/Graphics/SVG/1.1/DTD/svg11.dtd"><svg t="1637820554936" class="icon" viewBox="0 0 1024 1024" version="1.1" xmlns="http://www.w3.org/2000/svg" p-id="1141" xmlns:xlink="http://www.w3.org/1999/xlink" width="200" height="200"><defs><style type="text/css"></style></defs><path d="M192.000387 682.666738h42.602657A63.999987 63.999987 0 0 1 298.667031 746.880058v212.906622A64.106653 64.106653 0 0 1 234.603044 1024H64.064413A63.999987 63.999987 0 0 1 0.000427 959.78668v-212.906622A64.106653 64.106653 0 0 1 64.064413 682.666738H106.667071v-165.119966c0-0.917333 0.021333-1.856 0.085333-2.773333A42.773324 42.773324 0 0 1 149.397729 469.333449H469.333662v-127.999973h-63.786653A64.063987 64.063987 0 0 1 341.333689 277.120156V64.213533A64.063987 64.063987 0 0 1 405.547009 0.000213h212.906622A64.063987 64.063987 0 0 1 682.666951 64.213533v212.906623A64.063987 64.063987 0 0 1 618.453631 341.333476H554.666978v127.999973h319.935933a42.602658 42.602658 0 0 1 42.645325 45.43999c0.064 0.917333 0.085333 1.856 0.085333 2.773333V682.666738h42.602658A63.999987 63.999987 0 0 1 1024.000213 746.880058v212.906622A64.106653 64.106653 0 0 1 959.936227 1024h-170.538631A63.999987 63.999987 0 0 1 725.333609 959.78668v-212.906622A64.106653 64.106653 0 0 1 789.397596 682.666738H832.000253v-127.999974H554.666978v127.999974h42.602658A63.999987 63.999987 0 0 1 661.333622 746.880058v212.906622A64.106653 64.106653 0 0 1 597.269636 1024h-170.538632A63.999987 63.999987 0 0 1 362.667018 959.78668v-212.906622A64.106653 64.106653 0 0 1 426.731004 682.666738H469.333662v-127.999974H192.000387v127.999974zM426.667004 85.333529v170.666631h170.666632V85.333529h-170.666632z m21.333329 682.666524v170.666631h127.999974v-170.666631h-127.999974z m362.666591 0v170.666631h127.999974v-170.666631h-127.999974zM85.333742 768.000053v170.666631h127.999974v-170.666631H85.333742z" p-id="1142"></path></svg>